# xmcd CD database file
#
# Track frame offsets:
#	150
#	13199
#	23291
#	41430
#	56564
#	88848
#	100183
#	115148
#	129802
#	148322
#	183787
#	216351
#	236358
#	250015
#	260292
#	269049
#	288184
#	303741
#
# Disc length: 4438 seconds
#
# Revision: 2
# Processed by: cddbd v1.4PL0 Copyright (c) Steve Scherf et al.
# Submitted via: CDex 1.51
#
DISCID=f8115412
DTITLE=Doors - 200% Platinum Hits
DYEAR=1900
DGENRE=Blues
TTITLE0=Love Street
TTITLE1=People Are Strange
TTITLE2=Waiting For The Sun
TTITLE3=Love Her Madly
TTITLE4=Ligth My Fire
TTITLE5=Break On Through
TTITLE6=Love Me Two Times
TTITLE7=Touch Me
TTITLE8=Roadhouse Blues
TTITLE9=L.A. Woman
TTITLE10=Riders On The Storm
TTITLE11=Five To One
TTITLE12=Spanish Caravan
TTITLE13=Hello, I Love You
TTITLE14=Wintertime Love
TTITLE15=The Ghost Song
TTITLE16=The Unknown Soldier
TTITLE17=The End
EXTD=
EXTT0=
EXTT1=
EXTT2=
EXTT3=
EXTT4=
EXTT5=
EXTT6=
EXTT7=
EXTT8=
EXTT9=
EXTT10=
EXTT11=
EXTT12=
EXTT13=
EXTT14=
EXTT15=
EXTT16=
EXTT17=
PLAYORDER=
